<svg id="Layer_1" data-name="Layer 1" xmlns="http://www.w3.org/2000/svg" xmlns:xlink="http://www.w3.org/1999/xlink" viewBox="0 0 72 72"><defs><style>.cls-1{fill:none;}.cls-2{clip-path:url(#clip-path);}.cls-3{fill:#1b75bc;}.cls-4{clip-path:url(#clip-path-2);}.cls-5{fill:#00a79d;}.cls-6{clip-path:url(#clip-path-3);}</style><clipPath id="clip-path"><path class="cls-1" d="M41.24,42.32q-8.55-2.46-12.44-6a11.53,11.53,0,0,1-3.89-8.84,12.18,12.18,0,0,1,4.76-9.84Q34.42,13.71,42,13.71a20.64,20.64,0,0,1,9.25,2,15.22,15.22,0,0,1,6.3,5.54A14.16,14.16,0,0,1,59.82,29H53.14a9.21,9.21,0,0,0-2.91-7.2q-2.91-2.62-8.2-2.62-4.91,0-7.66,2.17a7.22,7.22,0,0,0-2.75,6,6.5,6.5,0,0,0,2.61,5.22q2.61,2.13,8.89,3.9A41.26,41.26,0,0,1,53,40.33a14.94,14.94,0,0,1,5.26,5A12.67,12.67,0,0,1,59.92,52a11.77,11.77,0,0,1-4.77,9.81q-4.77,3.68-12.77,3.68a23.69,23.69,0,0,1-9.69-2A16.3,16.3,0,0,1,25.76,58a13.3,13.3,0,0,1-2.44-7.85H30a8.67,8.67,0,0,0,3.37,7.21q3.37,2.65,9,2.65,5.26,0,8.06-2.15A7,7,0,0,0,53.24,52a6.84,6.84,0,0,0-2.59-5.73Q48.06,44.3,41.24,42.32Z"/></clipPath><clipPath id="clip-path-2"><rect class="cls-1" x="-2.53" y="-7.91" width="38.97" height="38.97" transform="translate(13.15 -8.6) rotate(45)"/></clipPath><clipPath id="clip-path-3"><rect class="cls-1" x="-6.14" y="72.48" width="9.63" height="9.63" transform="translate(54.27 23.58) rotate(45)"/></clipPath></defs><title>openServiceLogo</title><g class="cls-2"><rect class="cls-3" x="17.96" y="22.08" width="61.77" height="61.77" transform="translate(51.76 -19.03) rotate(45)"/></g><g class="cls-4"><path class="cls-5" d="M27.32,4.77a16.47,16.47,0,0,1,6.11,1.08A13.17,13.17,0,0,1,38.1,8.93a13.63,13.63,0,0,1,3,4.86,18.48,18.48,0,0,1,1.05,6.41,18.57,18.57,0,0,1-1.05,6.44,13.92,13.92,0,0,1-3,4.89,13,13,0,0,1-4.67,3.1,16.48,16.48,0,0,1-6.11,1.08,16.59,16.59,0,0,1-6.12-1.08,13.09,13.09,0,0,1-4.7-3.1,14,14,0,0,1-3-4.89,18.34,18.34,0,0,1-1.07-6.44,18.25,18.25,0,0,1,1.07-6.41,13.67,13.67,0,0,1,3-4.86,13.29,13.29,0,0,1,4.7-3.07A16.58,16.58,0,0,1,27.32,4.77Zm0,25.39a6.36,6.36,0,0,0,5.55-2.52q1.8-2.52,1.8-7.38t-1.8-7.41a6.33,6.33,0,0,0-5.55-2.55,6.42,6.42,0,0,0-5.62,2.56q-1.82,2.56-1.82,7.39t1.82,7.36A6.45,6.45,0,0,0,27.32,30.16Z"/></g></svg>