<svg id="Layer_1" data-name="Layer 1" xmlns="http://www.w3.org/2000/svg" xmlns:xlink="http://www.w3.org/1999/xlink" viewBox="0 0 72 72"><defs><style>.cls-1{fill:none;}.cls-2{fill:#1b75bc;}.cls-3{clip-path:url(#clip-path);}.cls-4{fill:#fff;}.cls-5{clip-path:url(#clip-path-2);}.cls-6{clip-path:url(#clip-path-3);}</style><clipPath id="clip-path"><path class="cls-1" d="M39.75,43.08q-7.94-2.28-11.56-5.61a10.72,10.72,0,0,1-3.62-8.21A11.32,11.32,0,0,1,29,20.11q4.42-3.62,11.49-3.62a19.18,19.18,0,0,1,8.6,1.86,14.15,14.15,0,0,1,5.85,5.14A13.16,13.16,0,0,1,57,30.67h-6.2A8.56,8.56,0,0,0,48.11,24q-2.7-2.44-7.62-2.44a11.24,11.24,0,0,0-7.12,2,6.71,6.71,0,0,0-2.56,5.59A6,6,0,0,0,33.24,34q2.43,2,8.26,3.62a38.36,38.36,0,0,1,9.13,3.62,13.86,13.86,0,0,1,4.89,4.61A11.77,11.77,0,0,1,57.11,52a10.94,10.94,0,0,1-4.44,9.11q-4.44,3.42-11.86,3.42a22,22,0,0,1-9-1.85,15.15,15.15,0,0,1-6.45-5.06,12.35,12.35,0,0,1-2.27-7.3h6.2a8.06,8.06,0,0,0,3.13,6.7,13.2,13.2,0,0,0,8.37,2.46q4.89,0,7.49-2a6.47,6.47,0,0,0,2.6-5.43,6.36,6.36,0,0,0-2.41-5.32Q46.08,44.91,39.75,43.08Z"/></clipPath><clipPath id="clip-path-2"><rect class="cls-1" x="-0.92" y="-3.6" width="36.21" height="36.21" transform="translate(15.29 -7.9) rotate(45)"/></clipPath><clipPath id="clip-path-3"><path class="cls-1" d="M-28.59,1.49Q-37.14-1-41-4.55a11.53,11.53,0,0,1-3.89-8.84,12.18,12.18,0,0,1,4.76-9.84q4.76-3.89,12.37-3.89a20.64,20.64,0,0,1,9.25,2,15.22,15.22,0,0,1,6.3,5.54A14.16,14.16,0,0,1-10-11.86h-6.68a9.21,9.21,0,0,0-2.91-7.2q-2.91-2.62-8.2-2.62-4.91,0-7.66,2.17a7.22,7.22,0,0,0-2.75,6A6.5,6.5,0,0,0-35.6-8.29q2.61,2.13,8.89,3.9A41.26,41.26,0,0,1-16.88-.5a14.94,14.94,0,0,1,5.26,5,12.67,12.67,0,0,1,1.71,6.68A11.77,11.77,0,0,1-14.69,21q-4.77,3.68-12.77,3.68a23.69,23.69,0,0,1-9.69-2,16.3,16.3,0,0,1-6.94-5.45,13.3,13.3,0,0,1-2.44-7.85h6.68a8.67,8.67,0,0,0,3.37,7.21q3.37,2.65,9,2.65,5.26,0,8.06-2.15a7,7,0,0,0,2.8-5.85,6.84,6.84,0,0,0-2.59-5.73Q-21.78,3.46-28.59,1.49Z"/></clipPath></defs><title>openServiceIcon</title><circle class="cls-2" cx="36.37" cy="36.23" r="34.16"/><g class="cls-3"><rect class="cls-4" x="18.12" y="24.26" width="57.4" height="57.4" transform="translate(51.16 -17.59) rotate(45)"/></g><g class="cls-5"><path class="cls-4" d="M26.82,8.18a15.3,15.3,0,0,1,5.67,1A12.24,12.24,0,0,1,36.83,12a12.65,12.65,0,0,1,2.77,4.52,17.17,17.17,0,0,1,1,6,17.25,17.25,0,0,1-1,6,12.93,12.93,0,0,1-2.77,4.54,12.06,12.06,0,0,1-4.34,2.88,15.3,15.3,0,0,1-5.67,1,15.41,15.41,0,0,1-5.69-1,12.16,12.16,0,0,1-4.37-2.88A13,13,0,0,1,14,28.51a17,17,0,0,1-1-6,17,17,0,0,1,1-6A12.7,12.7,0,0,1,16.77,12a12.34,12.34,0,0,1,4.37-2.86A15.41,15.41,0,0,1,26.82,8.18Zm0,23.59A5.91,5.91,0,0,0,32,29.43q1.67-2.34,1.67-6.86T32,15.69a5.89,5.89,0,0,0-5.16-2.37,6,6,0,0,0-5.22,2.38q-1.69,2.38-1.69,6.87t1.69,6.84A6,6,0,0,0,26.82,31.77Z"/></g><g class="cls-6"><rect class="cls-2" x="-51.88" y="-18.76" width="61.77" height="61.77" transform="translate(2.43 18.39) rotate(45)"/></g></svg>